<mxfile host="app.diagrams.net" agent="Mozilla/5.0 (Windows NT 10.0; Win64; x64) AppleWebKit/537.36 (KHTML, like Gecko) Chrome/128.0.0.0 Safari/537.36" version="24.7.16">
  <diagram name="Page-1" id="CiYKKxLI1GIgL41UB-QS">
    <mxGraphModel grid="1" page="0" gridSize="10" guides="1" tooltips="1" connect="1" arrows="1" fold="1" pageScale="1" pageWidth="850" pageHeight="1100" math="0" shadow="0">
      <root>
        <mxCell id="0" />
        <mxCell id="1" parent="0" />
        <mxCell id="EUWJisckkiPyw1wJ0TZS-1" value="Transaksi" style="swimlane;fontStyle=1;align=center;verticalAlign=top;childLayout=stackLayout;horizontal=1;startSize=26.857142857142858;horizontalStack=0;resizeParent=1;resizeParentMax=0;resizeLast=0;collapsible=0;marginBottom=0;" vertex="1" parent="1">
          <mxGeometry x="35" y="481" width="189" height="196.85714285714286" as="geometry" />
        </mxCell>
        <mxCell id="EUWJisckkiPyw1wJ0TZS-2" value="+int idTransaksi" style="text;strokeColor=none;fillColor=none;align=left;verticalAlign=top;spacingLeft=4;spacingRight=4;overflow=hidden;rotatable=0;points=[[0,0.5],[1,0.5]];portConstraint=eastwest;" vertex="1" parent="EUWJisckkiPyw1wJ0TZS-1">
          <mxGeometry y="26.857142857142858" width="189" height="27" as="geometry" />
        </mxCell>
        <mxCell id="EUWJisckkiPyw1wJ0TZS-3" value="+date tanggal" style="text;strokeColor=none;fillColor=none;align=left;verticalAlign=top;spacingLeft=4;spacingRight=4;overflow=hidden;rotatable=0;points=[[0,0.5],[1,0.5]];portConstraint=eastwest;" vertex="1" parent="EUWJisckkiPyw1wJ0TZS-1">
          <mxGeometry y="53.85714285714286" width="189" height="27" as="geometry" />
        </mxCell>
        <mxCell id="EUWJisckkiPyw1wJ0TZS-4" value="+float jumlah" style="text;strokeColor=none;fillColor=none;align=left;verticalAlign=top;spacingLeft=4;spacingRight=4;overflow=hidden;rotatable=0;points=[[0,0.5],[1,0.5]];portConstraint=eastwest;" vertex="1" parent="EUWJisckkiPyw1wJ0TZS-1">
          <mxGeometry y="80.85714285714286" width="189" height="27" as="geometry" />
        </mxCell>
        <mxCell id="EUWJisckkiPyw1wJ0TZS-5" value="+String jenisTransaksi" style="text;strokeColor=none;fillColor=none;align=left;verticalAlign=top;spacingLeft=4;spacingRight=4;overflow=hidden;rotatable=0;points=[[0,0.5],[1,0.5]];portConstraint=eastwest;" vertex="1" parent="EUWJisckkiPyw1wJ0TZS-1">
          <mxGeometry y="107.85714285714286" width="189" height="27" as="geometry" />
        </mxCell>
        <mxCell id="EUWJisckkiPyw1wJ0TZS-6" style="line;strokeWidth=1;fillColor=none;align=left;verticalAlign=middle;spacingTop=-1;spacingLeft=3;spacingRight=3;rotatable=0;labelPosition=right;points=[];portConstraint=eastwest;strokeColor=inherit;" vertex="1" parent="EUWJisckkiPyw1wJ0TZS-1">
          <mxGeometry y="134.85714285714286" width="189" height="8" as="geometry" />
        </mxCell>
        <mxCell id="EUWJisckkiPyw1wJ0TZS-7" value="+void catatTransaksi()" style="text;strokeColor=none;fillColor=none;align=left;verticalAlign=top;spacingLeft=4;spacingRight=4;overflow=hidden;rotatable=0;points=[[0,0.5],[1,0.5]];portConstraint=eastwest;" vertex="1" parent="EUWJisckkiPyw1wJ0TZS-1">
          <mxGeometry y="142.85714285714286" width="189" height="27" as="geometry" />
        </mxCell>
        <mxCell id="EUWJisckkiPyw1wJ0TZS-8" value="+void validasiTransaksi()" style="text;strokeColor=none;fillColor=none;align=left;verticalAlign=top;spacingLeft=4;spacingRight=4;overflow=hidden;rotatable=0;points=[[0,0.5],[1,0.5]];portConstraint=eastwest;" vertex="1" parent="EUWJisckkiPyw1wJ0TZS-1">
          <mxGeometry y="169.85714285714286" width="189" height="27" as="geometry" />
        </mxCell>
        <mxCell id="EUWJisckkiPyw1wJ0TZS-9" value="Akun" style="swimlane;fontStyle=1;align=center;verticalAlign=top;childLayout=stackLayout;horizontal=1;startSize=27.5;horizontalStack=0;resizeParent=1;resizeParentMax=0;resizeLast=0;collapsible=0;marginBottom=0;" vertex="1" parent="1">
          <mxGeometry x="130" y="746" width="247" height="175.5" as="geometry" />
        </mxCell>
        <mxCell id="EUWJisckkiPyw1wJ0TZS-10" value="+int idAkun" style="text;strokeColor=none;fillColor=none;align=left;verticalAlign=top;spacingLeft=4;spacingRight=4;overflow=hidden;rotatable=0;points=[[0,0.5],[1,0.5]];portConstraint=eastwest;" vertex="1" parent="EUWJisckkiPyw1wJ0TZS-9">
          <mxGeometry y="27.5" width="247" height="28" as="geometry" />
        </mxCell>
        <mxCell id="EUWJisckkiPyw1wJ0TZS-11" value="+String namaAkun" style="text;strokeColor=none;fillColor=none;align=left;verticalAlign=top;spacingLeft=4;spacingRight=4;overflow=hidden;rotatable=0;points=[[0,0.5],[1,0.5]];portConstraint=eastwest;" vertex="1" parent="EUWJisckkiPyw1wJ0TZS-9">
          <mxGeometry y="55.5" width="247" height="28" as="geometry" />
        </mxCell>
        <mxCell id="EUWJisckkiPyw1wJ0TZS-12" value="+float saldo" style="text;strokeColor=none;fillColor=none;align=left;verticalAlign=top;spacingLeft=4;spacingRight=4;overflow=hidden;rotatable=0;points=[[0,0.5],[1,0.5]];portConstraint=eastwest;" vertex="1" parent="EUWJisckkiPyw1wJ0TZS-9">
          <mxGeometry y="83.5" width="247" height="28" as="geometry" />
        </mxCell>
        <mxCell id="EUWJisckkiPyw1wJ0TZS-13" style="line;strokeWidth=1;fillColor=none;align=left;verticalAlign=middle;spacingTop=-1;spacingLeft=3;spacingRight=3;rotatable=0;labelPosition=right;points=[];portConstraint=eastwest;strokeColor=inherit;" vertex="1" parent="EUWJisckkiPyw1wJ0TZS-9">
          <mxGeometry y="111.5" width="247" height="8" as="geometry" />
        </mxCell>
        <mxCell id="EUWJisckkiPyw1wJ0TZS-14" value="+void tambahAkun()" style="text;strokeColor=none;fillColor=none;align=left;verticalAlign=top;spacingLeft=4;spacingRight=4;overflow=hidden;rotatable=0;points=[[0,0.5],[1,0.5]];portConstraint=eastwest;" vertex="1" parent="EUWJisckkiPyw1wJ0TZS-9">
          <mxGeometry y="119.5" width="247" height="28" as="geometry" />
        </mxCell>
        <mxCell id="EUWJisckkiPyw1wJ0TZS-15" value="+void updateSaldo(float jumlah)" style="text;strokeColor=none;fillColor=none;align=left;verticalAlign=top;spacingLeft=4;spacingRight=4;overflow=hidden;rotatable=0;points=[[0,0.5],[1,0.5]];portConstraint=eastwest;" vertex="1" parent="EUWJisckkiPyw1wJ0TZS-9">
          <mxGeometry y="147.5" width="247" height="28" as="geometry" />
        </mxCell>
        <mxCell id="EUWJisckkiPyw1wJ0TZS-16" value="LaporanKeuangan" style="swimlane;fontStyle=1;align=center;verticalAlign=top;childLayout=stackLayout;horizontal=1;startSize=27.5;horizontalStack=0;resizeParent=1;resizeParentMax=0;resizeLast=0;collapsible=0;marginBottom=0;" vertex="1" parent="1">
          <mxGeometry x="34" y="20" width="191" height="175.5" as="geometry" />
        </mxCell>
        <mxCell id="EUWJisckkiPyw1wJ0TZS-17" value="+int idLaporan" style="text;strokeColor=none;fillColor=none;align=left;verticalAlign=top;spacingLeft=4;spacingRight=4;overflow=hidden;rotatable=0;points=[[0,0.5],[1,0.5]];portConstraint=eastwest;" vertex="1" parent="EUWJisckkiPyw1wJ0TZS-16">
          <mxGeometry y="27.5" width="191" height="28" as="geometry" />
        </mxCell>
        <mxCell id="EUWJisckkiPyw1wJ0TZS-18" value="+date periode" style="text;strokeColor=none;fillColor=none;align=left;verticalAlign=top;spacingLeft=4;spacingRight=4;overflow=hidden;rotatable=0;points=[[0,0.5],[1,0.5]];portConstraint=eastwest;" vertex="1" parent="EUWJisckkiPyw1wJ0TZS-16">
          <mxGeometry y="55.5" width="191" height="28" as="geometry" />
        </mxCell>
        <mxCell id="EUWJisckkiPyw1wJ0TZS-19" value="+float totalPendapatan" style="text;strokeColor=none;fillColor=none;align=left;verticalAlign=top;spacingLeft=4;spacingRight=4;overflow=hidden;rotatable=0;points=[[0,0.5],[1,0.5]];portConstraint=eastwest;" vertex="1" parent="EUWJisckkiPyw1wJ0TZS-16">
          <mxGeometry y="83.5" width="191" height="28" as="geometry" />
        </mxCell>
        <mxCell id="EUWJisckkiPyw1wJ0TZS-20" value="+float totalPengeluaran" style="text;strokeColor=none;fillColor=none;align=left;verticalAlign=top;spacingLeft=4;spacingRight=4;overflow=hidden;rotatable=0;points=[[0,0.5],[1,0.5]];portConstraint=eastwest;" vertex="1" parent="EUWJisckkiPyw1wJ0TZS-16">
          <mxGeometry y="111.5" width="191" height="28" as="geometry" />
        </mxCell>
        <mxCell id="EUWJisckkiPyw1wJ0TZS-21" style="line;strokeWidth=1;fillColor=none;align=left;verticalAlign=middle;spacingTop=-1;spacingLeft=3;spacingRight=3;rotatable=0;labelPosition=right;points=[];portConstraint=eastwest;strokeColor=inherit;" vertex="1" parent="EUWJisckkiPyw1wJ0TZS-16">
          <mxGeometry y="139.5" width="191" height="8" as="geometry" />
        </mxCell>
        <mxCell id="EUWJisckkiPyw1wJ0TZS-22" value="+void generateLaporan()" style="text;strokeColor=none;fillColor=none;align=left;verticalAlign=top;spacingLeft=4;spacingRight=4;overflow=hidden;rotatable=0;points=[[0,0.5],[1,0.5]];portConstraint=eastwest;" vertex="1" parent="EUWJisckkiPyw1wJ0TZS-16">
          <mxGeometry y="147.5" width="191" height="28" as="geometry" />
        </mxCell>
        <mxCell id="EUWJisckkiPyw1wJ0TZS-23" value="Pajak" style="swimlane;fontStyle=1;align=center;verticalAlign=top;childLayout=stackLayout;horizontal=1;startSize=28.4;horizontalStack=0;resizeParent=1;resizeParentMax=0;resizeLast=0;collapsible=0;marginBottom=0;" vertex="1" parent="1">
          <mxGeometry x="118" y="262" width="243" height="148.4" as="geometry" />
        </mxCell>
        <mxCell id="EUWJisckkiPyw1wJ0TZS-24" value="+int idPajak" style="text;strokeColor=none;fillColor=none;align=left;verticalAlign=top;spacingLeft=4;spacingRight=4;overflow=hidden;rotatable=0;points=[[0,0.5],[1,0.5]];portConstraint=eastwest;" vertex="1" parent="EUWJisckkiPyw1wJ0TZS-23">
          <mxGeometry y="28.4" width="243" height="28" as="geometry" />
        </mxCell>
        <mxCell id="EUWJisckkiPyw1wJ0TZS-25" value="+float persentasePajak" style="text;strokeColor=none;fillColor=none;align=left;verticalAlign=top;spacingLeft=4;spacingRight=4;overflow=hidden;rotatable=0;points=[[0,0.5],[1,0.5]];portConstraint=eastwest;" vertex="1" parent="EUWJisckkiPyw1wJ0TZS-23">
          <mxGeometry y="56.4" width="243" height="28" as="geometry" />
        </mxCell>
        <mxCell id="EUWJisckkiPyw1wJ0TZS-26" value="+float totalPajak" style="text;strokeColor=none;fillColor=none;align=left;verticalAlign=top;spacingLeft=4;spacingRight=4;overflow=hidden;rotatable=0;points=[[0,0.5],[1,0.5]];portConstraint=eastwest;" vertex="1" parent="EUWJisckkiPyw1wJ0TZS-23">
          <mxGeometry y="84.4" width="243" height="28" as="geometry" />
        </mxCell>
        <mxCell id="EUWJisckkiPyw1wJ0TZS-27" style="line;strokeWidth=1;fillColor=none;align=left;verticalAlign=middle;spacingTop=-1;spacingLeft=3;spacingRight=3;rotatable=0;labelPosition=right;points=[];portConstraint=eastwest;strokeColor=inherit;" vertex="1" parent="EUWJisckkiPyw1wJ0TZS-23">
          <mxGeometry y="112.4" width="243" height="8" as="geometry" />
        </mxCell>
        <mxCell id="EUWJisckkiPyw1wJ0TZS-28" value="+void hitungPajak(float jumlah)" style="text;strokeColor=none;fillColor=none;align=left;verticalAlign=top;spacingLeft=4;spacingRight=4;overflow=hidden;rotatable=0;points=[[0,0.5],[1,0.5]];portConstraint=eastwest;" vertex="1" parent="EUWJisckkiPyw1wJ0TZS-23">
          <mxGeometry y="120.4" width="243" height="28" as="geometry" />
        </mxCell>
        <mxCell id="EUWJisckkiPyw1wJ0TZS-29" value="RekonsiliasiKas" style="swimlane;fontStyle=1;align=center;verticalAlign=top;childLayout=stackLayout;horizontal=1;startSize=28.4;horizontalStack=0;resizeParent=1;resizeParentMax=0;resizeLast=0;collapsible=0;marginBottom=0;" vertex="1" parent="1">
          <mxGeometry x="274" y="504" width="208" height="148.4" as="geometry" />
        </mxCell>
        <mxCell id="EUWJisckkiPyw1wJ0TZS-30" value="+int idRekonsiliasi" style="text;strokeColor=none;fillColor=none;align=left;verticalAlign=top;spacingLeft=4;spacingRight=4;overflow=hidden;rotatable=0;points=[[0,0.5],[1,0.5]];portConstraint=eastwest;" vertex="1" parent="EUWJisckkiPyw1wJ0TZS-29">
          <mxGeometry y="28.4" width="208" height="28" as="geometry" />
        </mxCell>
        <mxCell id="EUWJisckkiPyw1wJ0TZS-31" value="+date tanggalRekonsiliasi" style="text;strokeColor=none;fillColor=none;align=left;verticalAlign=top;spacingLeft=4;spacingRight=4;overflow=hidden;rotatable=0;points=[[0,0.5],[1,0.5]];portConstraint=eastwest;" vertex="1" parent="EUWJisckkiPyw1wJ0TZS-29">
          <mxGeometry y="56.4" width="208" height="28" as="geometry" />
        </mxCell>
        <mxCell id="EUWJisckkiPyw1wJ0TZS-32" value="+float saldoKas" style="text;strokeColor=none;fillColor=none;align=left;verticalAlign=top;spacingLeft=4;spacingRight=4;overflow=hidden;rotatable=0;points=[[0,0.5],[1,0.5]];portConstraint=eastwest;" vertex="1" parent="EUWJisckkiPyw1wJ0TZS-29">
          <mxGeometry y="84.4" width="208" height="28" as="geometry" />
        </mxCell>
        <mxCell id="EUWJisckkiPyw1wJ0TZS-33" style="line;strokeWidth=1;fillColor=none;align=left;verticalAlign=middle;spacingTop=-1;spacingLeft=3;spacingRight=3;rotatable=0;labelPosition=right;points=[];portConstraint=eastwest;strokeColor=inherit;" vertex="1" parent="EUWJisckkiPyw1wJ0TZS-29">
          <mxGeometry y="112.4" width="208" height="8" as="geometry" />
        </mxCell>
        <mxCell id="EUWJisckkiPyw1wJ0TZS-34" value="+void lakukanRekonsiliasi()" style="text;strokeColor=none;fillColor=none;align=left;verticalAlign=top;spacingLeft=4;spacingRight=4;overflow=hidden;rotatable=0;points=[[0,0.5],[1,0.5]];portConstraint=eastwest;" vertex="1" parent="EUWJisckkiPyw1wJ0TZS-29">
          <mxGeometry y="120.4" width="208" height="28" as="geometry" />
        </mxCell>
        <mxCell id="EUWJisckkiPyw1wJ0TZS-35" value="&quot;tercatat dalam&quot;" style="curved=1;startArrow=none;endArrow=open;endSize=12;exitX=0.5;exitY=1;entryX=0.14;entryY=0;rounded=0;fontSize=12;" edge="1" parent="1" source="EUWJisckkiPyw1wJ0TZS-1" target="EUWJisckkiPyw1wJ0TZS-9">
          <mxGeometry relative="1" as="geometry">
            <Array as="points">
              <mxPoint x="130" y="712" />
            </Array>
          </mxGeometry>
        </mxCell>
        <mxCell id="EUWJisckkiPyw1wJ0TZS-36" value="&quot;mengambil data&quot;" style="curved=1;startArrow=none;endArrow=open;endSize=12;exitX=0.09;exitY=1;entryX=0.07;entryY=0;rounded=0;fontSize=12;" edge="1" parent="1" source="EUWJisckkiPyw1wJ0TZS-16" target="EUWJisckkiPyw1wJ0TZS-1">
          <mxGeometry relative="1" as="geometry">
            <Array as="points">
              <mxPoint x="20" y="228" />
              <mxPoint x="20" y="447" />
            </Array>
          </mxGeometry>
        </mxCell>
        <mxCell id="EUWJisckkiPyw1wJ0TZS-37" value="&quot;menghitung pajak&quot;" style="curved=1;startArrow=none;endArrow=open;endSize=12;exitX=0.91;exitY=1;entryX=0.5;entryY=0;rounded=0;fontSize=12;" edge="1" parent="1" source="EUWJisckkiPyw1wJ0TZS-16" target="EUWJisckkiPyw1wJ0TZS-23">
          <mxGeometry relative="1" as="geometry">
            <Array as="points">
              <mxPoint x="239" y="228" />
            </Array>
          </mxGeometry>
        </mxCell>
        <mxCell id="EUWJisckkiPyw1wJ0TZS-38" value="&quot;menyesuaikan saldo&quot;" style="curved=1;startArrow=none;endArrow=open;endSize=12;exitX=0.5;exitY=1;entryX=0.86;entryY=0;rounded=0;fontSize=12;" edge="1" parent="1" source="EUWJisckkiPyw1wJ0TZS-29" target="EUWJisckkiPyw1wJ0TZS-9">
          <mxGeometry relative="1" as="geometry">
            <Array as="points">
              <mxPoint x="378" y="712" />
            </Array>
          </mxGeometry>
        </mxCell>
        <mxCell id="EUWJisckkiPyw1wJ0TZS-39" value="&quot;mengambil data transaksi&quot;" style="curved=1;startArrow=none;endArrow=open;endSize=12;exitX=0.5;exitY=1;entryX=0.93;entryY=0;rounded=0;fontSize=12;" edge="1" parent="1" source="EUWJisckkiPyw1wJ0TZS-23" target="EUWJisckkiPyw1wJ0TZS-1">
          <mxGeometry relative="1" as="geometry">
            <Array as="points">
              <mxPoint x="239" y="447" />
            </Array>
          </mxGeometry>
        </mxCell>
      </root>
    </mxGraphModel>
  </diagram>
</mxfile>
